<?xml version="1.0" encoding="UTF-8" standalone="no"?>
<!DOCTYPE svg PUBLIC "-//W3C//DTD SVG 1.1//EN" "http://www.w3.org/Graphics/SVG/1.1/DTD/svg11.dtd">
<svg version="1.1" xmlns="http://www.w3.org/2000/svg" xmlns:xlink="http://www.w3.org/1999/xlink" preserveAspectRatio="xMidYMid meet" viewBox="0 0 640 640" width="640" height="640"><defs><path d="M347.16 240.82C347.16 275.13 320.01 302.97 286.57 302.97C253.14 302.97 225.99 275.13 225.99 240.82C225.99 206.52 253.14 178.67 286.57 178.67C320.01 178.67 347.16 206.52 347.16 240.82Z" id="b6bR17HBKB"></path><path d="M303.57 136.42L285.56 97.57L269.58 137.29L280.35 137.01L281.42 178.67L293.9 178.35L292.82 136.69L303.57 136.42Z" id="c18OXhuAHW"></path><path d="M269.57 344.92L287.04 384.01L303.57 344.52L292.8 344.64L292.31 302.97L279.83 303.12L280.32 344.79L269.57 344.92Z" id="a7VKQdzEkQ"></path></defs><g><g><g><use xlink:href="#b6bR17HBKB" opacity="1" fill="#2e9234" fill-opacity="0"></use><g><use xlink:href="#b6bR17HBKB" opacity="1" fill-opacity="0" stroke="#000000" stroke-width="3" stroke-opacity="1"></use></g></g><g><use xlink:href="#c18OXhuAHW" opacity="1" fill="#2e9234" fill-opacity="0"></use><g><use xlink:href="#c18OXhuAHW" opacity="1" fill-opacity="0" stroke="#000000" stroke-width="2" stroke-opacity="1"></use></g></g><g><use xlink:href="#a7VKQdzEkQ" opacity="1" fill="#2e9234" fill-opacity="0"></use><g><use xlink:href="#a7VKQdzEkQ" opacity="1" fill-opacity="0" stroke="#000000" stroke-width="2" stroke-opacity="1"></use></g></g></g></g></svg>